<svg id="Layer_1" data-name="Layer 1" xmlns="http://www.w3.org/2000/svg" viewBox="0 0 383.58 121.52"><defs><style>.cls-1{fill:#feca05;}</style></defs><path class="cls-1" d="M38,41.83,0,118.77H17.93l4.81-10.85H53l4.73,10.85H76.44L39.2,41.83Zm-.21,29.82,9.72,23.41H27.94Zm0,0"/><path class="cls-1" d="M98.58,41.71h1.26L128,90.31l26.57-48.6h1.37l15.6,77.07h-17l-6.33-34.06-20,36.8h-1.16L105.54,84.2,99,118.78H83.08Zm0,0"/><rect class="cls-1" x="179.04" y="44.13" width="17.82" height="74.65"/><path class="cls-1" d="M205.4,44.13v74.64h19.82c10,0,18.22-1,26.13-5.58,12.13-7,18.48-17.93,18.48-31.74,0-22.36-15.83-37.32-44.61-37.32ZM223,60.05h3.9c16,0,24.93,8.43,24.93,21.4s-8.9,21.32-24.93,21.32H223Zm0,0"/><path class="cls-1" d="M316.53,41.65a39.67,39.67,0,1,0,39.66,39.67,39.68,39.68,0,0,0-39.66-39.67Zm0,16.84A22.83,22.83,0,1,1,293.7,81.32a22.83,22.83,0,0,1,22.83-22.83Zm0,0"/><path class="cls-1" d="M361.13,0a22.42,22.42,0,1,1-22.39,22.3A22.38,22.38,0,0,1,361.13,0Zm19.69,22.37a19.66,19.66,0,0,0-39.32,0,19.66,19.66,0,1,0,39.32,0Z"/><path class="cls-1" d="M348.76,15.3l5.5-5.5c1.39,1.39,2.79,2.8,4.15,4.14s4.74,1.23,6,0,2.76-2.76,4.15-4.15L374,15.31l-3.92,3.91a5.06,5.06,0,0,0,0,6.47L374,29.55l-5.51,5.51-4-4c-1.4-1.39-4.83-1.4-6.22,0l-4,4-5.44-5.44c1.35-1.35,3.2-3.32,4.54-4.67s.76-4.26-.53-5.55Z"/></svg>